<svg xmlns="http://www.w3.org/2000/svg" width="90" height="34" viewBox="0 0 90 34"><g><g><g><g><g><g><g><path fill="#fcb316" d="M25.7 7.47a12.832 12.832 0 0 1 3.774 9.122c0 3.445-1.342 6.685-3.775 9.122a12.822 12.822 0 0 1-9.119 3.776 12.822 12.822 0 0 1-9.119-3.776 12.832 12.832 0 0 1-3.775-9.122c0-3.446 1.34-6.686 3.775-9.123a12.822 12.822 0 0 1 9.12-3.776c3.443 0 6.682 1.343 9.118 3.776zm-2.66 24.396a16.544 16.544 0 0 0 5.27-3.553 16.504 16.504 0 0 0 3.554-5.27 16.491 16.491 0 0 0 1.303-6.455A16.544 16.544 0 0 0 28.31 4.863 16.504 16.504 0 0 0 16.58.01 16.544 16.544 0 0 0 4.857 4.866a16.504 16.504 0 0 0-3.553 5.27A16.491 16.491 0 0 0 0 16.593 16.544 16.544 0 0 0 4.86 28.32a16.504 16.504 0 0 0 5.27 3.553 16.491 16.491 0 0 0 6.455 1.303c2.24 0 4.41-.44 6.455-1.31z"/></g></g></g></g><g><path fill="#fcb316" d="M15.59 20.722h7.186v3.61h-4.424c.072 1.034.111 1.992.183 3.021h-3.722V24.37h-4.424c0-1.181-.148-2.358.072-3.463.111-.59.774-1.106 1.18-1.62 1.4-1.66 2.801-3.28 4.238-4.94.554-.626 1.105-1.216 1.731-1.915h-6.89v-3.61h4.09V5.8h3.574v2.948h4.46c0 1.217.148 2.394-.071 3.503-.112.59-.774 1.105-1.217 1.62-1.4 1.66-2.801 3.28-4.237 4.94-.548.658-1.098 1.245-1.728 1.911z"/></g></g><g><g><path d="M47.804 18.914l.036.072c.036 1.548-.48 2.837-1.512 3.795-1.034.993-2.47 1.476-4.238 1.476-1.807 0-3.28-.59-4.384-1.807-1.142-1.217-1.696-2.765-1.696-4.644v-2.949c0-1.879.554-3.427 1.66-4.644 1.105-1.217 2.541-1.843 4.348-1.843 1.808 0 3.244.479 4.313 1.436 1.07.958 1.548 2.247 1.548 3.87l-.036.072h-2.505c0-1.033-.296-1.843-.846-2.433-.555-.59-1.4-.886-2.47-.886-1.07 0-1.88.407-2.506 1.253-.626.846-.921 1.88-.921 3.132v2.948c0 1.253.331 2.322.957 3.168.627.846 1.476 1.253 2.542 1.253 1.07 0 1.88-.295 2.434-.846.554-.554.81-1.364.81-2.433-.004.01 2.466.01 2.466.01z"/></g><g><path d="M55.652 11.66h.072l2.246 6.6h-4.568zm4.273 12.384h2.617L56.941 8.64h-2.434L48.83 24.044h2.617l1.217-3.61h6.044z"/></g><g><path d="M72.677 20.056c0-.627-.22-1.181-.702-1.584-.48-.407-1.329-.774-2.542-1.106-1.732-.442-3.06-1.033-3.982-1.807-.921-.738-1.4-1.731-1.4-2.912 0-1.253.515-2.247 1.548-3.06 1.033-.81 2.358-1.217 3.982-1.217 1.695 0 3.06.443 4.09 1.364 1.032.922 1.511 2.027 1.475 3.28l-.036.072h-2.47c0-.774-.259-1.436-.81-1.915-.554-.479-1.288-.738-2.285-.738-.922 0-1.66.22-2.175.626-.515.407-.774.922-.774 1.584 0 .59.26 1.07.81 1.476.555.407 1.437.738 2.73 1.105 1.659.443 2.911 1.07 3.793 1.844.882.774 1.29 1.767 1.29 2.984 0 1.289-.516 2.322-1.549 3.06-1.033.774-2.394 1.141-4.053 1.141-1.62 0-3.02-.443-4.238-1.289-1.216-.846-1.807-2.026-1.767-3.502l.036-.072h2.47c0 .921.33 1.62.957 2.102.662.479 1.512.702 2.542.702.957 0 1.695-.184 2.21-.59.594-.404.85-.922.85-1.548z"/></g><g><path d="M90.003 24.008h-2.581v-6.563h-6.89v6.56H77.95V8.6h2.581v6.782h6.89V8.6h2.582z"/></g></g></g></g></svg>