<svg xmlns="http://www.w3.org/2000/svg" width="38" height="38" viewBox="0 0 38 38"><g><g><g><path fill="#002868" d="M18.8 37.6C8.46 37.6 0 29.14 0 18.8S8.46 0 18.8 0s18.8 8.46 18.8 18.8-8.46 18.8-18.8 18.8z"/></g><g><path fill="#fff" d="M28.275 30.08H9.325a1.81 1.81 0 0 1-1.805-1.805V9.325A1.81 1.81 0 0 1 9.325 7.52h18.95a1.81 1.81 0 0 1 1.805 1.805v18.95a1.81 1.81 0 0 1-1.805 1.805z"/></g><g><g><path fill="#002868" d="M11.919 27.805c-.06 0-.108-.054-.108-.113V24.66c0-.059-.048-.113-.107-.113h-1.07c-.06 0-.114-.048-.114-.108v-.585c0-.06.054-.114.114-.114h3.293c.06 0 .114.053.114.114v.585c0 .06-.054.108-.114.108h-1.064a.118.118 0 0 0-.113.113v3.032c0 .06-.048.113-.108.113z"/></g><g><path fill="#002868" d="M17.336 23.854c0-.06.049-.114.108-.114h.717c.06 0 .114.053.114.114v2.068c0 1.226-.693 1.937-1.794 1.937-1.094 0-1.781-.71-1.781-1.937v-2.068c0-.06.048-.114.108-.114h.717c.06 0 .113.053.113.114v2.098c0 .603.311 1.034.85 1.034.538 0 .848-.43.848-1.034v-2.098z"/></g><g><path fill="#002868" d="M21.563 25.075c-.096 0-.126-.036-.162-.108-.126-.293-.401-.478-.82-.478-.376 0-.692.131-.692.383 0 .275.293.388.938.466.98.113 1.542.413 1.542 1.19 0 .873-.765 1.333-1.745 1.333-.849 0-1.578-.413-1.692-1.28-.012-.083.03-.113.114-.113h.658c.083 0 .131.036.155.102.09.287.395.508.837.508.389 0 .73-.144.73-.448 0-.365-.359-.43-1.076-.52-.825-.108-1.4-.347-1.4-1.107s.653-1.303 1.675-1.303c.92 0 1.56.496 1.692 1.238.018.083-.006.137-.096.137h-.658z"/></g><g><path fill="#002868" d="M24.813 26.997h-.68a.108.108 0 0 1-.108-.108v-2.23c0-.06.048-.113.107-.113h.675c.658 0 1.166.515 1.166 1.226s-.508 1.226-1.16 1.226zm0 .808c1.22 0 2.147-.825 2.147-2.02 0-1.214-.939-2.045-2.147-2.045h-1.625c-.06 0-.108.054-.108.114v3.838c0 .06.048.113.108.113z"/></g></g><g><path fill="#002868" d="M29.478 21.506H8.12a.302.302 0 0 1-.301-.3V9.324c0-.827.677-1.504 1.504-1.504h18.95c.828 0 1.504.677 1.504 1.504v11.882c0 .165-.135.3-.3.3z"/></g><g><path fill="#fff" d="M19.91 19.063h-1.954a.226.226 0 0 1-.226-.225v-8.272c0-.124.102-.226.226-.226h1.955c.124 0 .225.102.225.226v8.272a.226.226 0 0 1-.225.225z"/></g><g><path fill="#fff" d="M23.24 12.746h-8.874a.226.226 0 0 1-.226-.225v-1.955c0-.124.102-.226.226-.226h8.873c.124 0 .226.102.226.226v1.955a.226.226 0 0 1-.226.225z"/></g></g></g></svg>