<svg xmlns="http://www.w3.org/2000/svg" width="117" height="29" viewBox="0 0 117 29"><g><g><g><path fill="#4d4e50" d="M77.889 14.847c0-4.547 3.306-7.647 7.444-7.647 2.452 0 4.172 1.08 5.333 2.562a.395.395 0 0 1-.111.583l-.816.458a.435.435 0 0 1-.553-.107 4.956 4.956 0 0 0-3.853-1.85c-3.133 0-5.562 2.483-5.562 6.007 0 3.501 2.43 6.007 5.562 6.007 1.592 0 2.993-.747 3.853-1.85a.435.435 0 0 1 .553-.113l.827.458a.393.393 0 0 1 .111.588c-1.206 1.494-2.892 2.557-5.344 2.557-4.138-.006-7.444-3.105-7.444-7.653zm37.468.38c0-1.884-.945-2.484-2.364-2.484-1.291 0-2.52.798-3.136 1.663v7.381a.44.44 0 0 1-.436.442h-.765a.44.44 0 0 1-.436-.442v-9.824a.44.44 0 0 1 .436-.442h.765a.44.44 0 0 1 .436.442v1.108c.744-.888 2.191-1.816 3.767-1.816 2.214 0 3.376 1.132 3.376 3.456v7.07a.44.44 0 0 1-.436.442h-.766a.44.44 0 0 1-.436-.441v-6.556zm-10.67-3.706h.766a.44.44 0 0 1 .436.442v9.824a.44.44 0 0 1-.436.442h-.765a.44.44 0 0 1-.436-.442v-9.824a.44.44 0 0 1 .436-.442zm-.72-2.924c0-.622.503-1.109 1.095-1.109.615 0 1.118.487 1.118 1.11 0 .621-.503 1.13-1.118 1.13-.592 0-1.095-.514-1.095-1.13zm-3.309 8.27c0-2.173-1.246-4.124-3.504-4.124s-3.527 1.951-3.527 4.123c0 2.195 1.269 4.146 3.527 4.146s3.504-1.951 3.504-4.146zm-8.741 0c0-3.106 2.018-5.612 5.237-5.612 3.219 0 5.237 2.506 5.237 5.611 0 3.106-2.018 5.634-5.237 5.634-3.22 0-5.237-2.534-5.237-5.634zm-25.67 3.731c3.549 0 5.606-2.576 5.606-5.746 0-3.198-1.995-5.768-5.606-5.768h-3.174v11.514zM61.251 7.884a.44.44 0 0 1 .436-.44h4.554c4.533 0 7.495 3.212 7.495 7.403 0 4.214-2.956 7.382-7.495 7.382h-4.554a.44.44 0 0 1-.436-.442zM48.899 19.101a.384.384 0 0 1 .57-.04c.978.962 2.443 1.793 4.298 1.793 2.604 0 3.437-1.42 3.437-2.55 0-1.777-1.771-2.263-3.7-2.795-2.341-.622-4.951-1.284-4.951-4.191 0-2.438 2.146-4.101 5.018-4.101 2.063 0 3.695.64 4.896 1.765.174.158.19.43.04.61l-.57.708a.38.38 0 0 1-.56.034c-1.067-1.013-2.475-1.477-3.94-1.477-1.755 0-3.001.956-3.001 2.348 0 1.487 1.688 1.928 3.549 2.437 2.386.645 5.103 1.397 5.103 4.503 0 2.15-1.448 4.344-5.388 4.344-2.359 0-4.136-.843-5.343-2.065a.446.446 0 0 1-.034-.588zM34.636 7.443h.945a.44.44 0 0 1 .436.441v8.558c0 2.704 1.447 4.412 4.141 4.412s4.141-1.708 4.141-4.412V7.884a.44.44 0 0 1 .436-.44h.945a.44.44 0 0 1 .436.44v8.58c0 3.683-1.995 6.03-5.958 6.03s-5.958-2.37-5.958-6.007V7.884a.432.432 0 0 1 .436-.44z"/></g><g><path fill="#2775ca" d="M14.4 28.8c7.953 0 14.4-6.447 14.4-14.4S22.353 0 14.4 0 0 6.447 0 14.4s6.447 14.4 14.4 14.4z"/></g><g><path fill="#fff" d="M11.7 24.742c0 .34-.265.533-.593.43A10.836 10.836 0 0 1 3.6 14.85c0-4.833 3.155-8.929 7.507-10.323.328-.102.593.09.593.43v.84c0 .226-.175.492-.39.566a9.046 9.046 0 0 0-5.91 8.481 9.046 9.046 0 0 0 5.91 8.482c.215.079.39.34.39.566z"/></g><g><path fill="#fff" d="M14.929 21.149a.455.455 0 0 1-.455.451h-.905a.455.455 0 0 1-.455-.451v-1.422c-1.98-.266-2.946-1.366-3.208-2.861a.42.42 0 0 1 .421-.485h1.035c.217 0 .399.152.444.366.193.892.711 1.575 2.298 1.575 1.172 0 2.002-.65 2.002-1.62 0-.97-.49-1.337-2.207-1.62-2.537-.338-3.737-1.1-3.737-3.074 0-1.524 1.16-2.709 2.958-2.963V7.651c0-.248.205-.451.455-.451h.904c.25 0 .455.203.455.451v1.434c1.462.26 2.39 1.083 2.69 2.449a.419.419 0 0 1-.415.502h-.955a.46.46 0 0 1-.438-.333c-.256-.87-.882-1.242-1.968-1.242-1.2 0-1.82.576-1.82 1.383 0 .852.353 1.28 2.195 1.546 2.492.339 3.777 1.044 3.777 3.149 0 1.596-1.194 2.889-3.066 3.188v1.422z"/></g><g><path fill="#fff" d="M17.693 25.173c-.328.102-.593-.091-.593-.431v-.839a.6.6 0 0 1 .39-.567 9.05 9.05 0 0 0 5.91-8.485 9.05 9.05 0 0 0-5.91-8.485.655.655 0 0 1-.39-.567V4.96c0-.34.265-.538.593-.43A10.84 10.84 0 0 1 25.2 14.856a10.85 10.85 0 0 1-7.507 10.316z"/></g></g></g></svg>