<svg xmlns="http://www.w3.org/2000/svg" width="124" height="34" viewBox="0 0 124 34"><g><g><g><path fill="#26a17b" d="M16.924 33.778c9.275 0 16.794-7.519 16.794-16.794S26.199.19 16.924.19.13 7.709.13 16.984s7.519 16.794 16.794 16.794z"/></g><g><g><path fill="#fff" d="M18.708 14.752c4.633.213 8.116 1.134 8.116 2.233 0 1.101-3.483 2.02-8.116 2.233v7.997H14.58v-7.997c-4.639-.216-8.13-1.134-8.13-2.236 0-1.102 3.488-2.02 8.13-2.233v-2.495H8.87V8.45h15.546v3.804h-5.71v2.495m0 3.793c4.09-.184 7.143-.899 7.143-1.754s-3.05-1.57-7.144-1.754v2.793c-.119.011-.756.065-2.03.065-1.061 0-1.83-.046-2.098-.065v-2.795c-4.098.181-7.16.898-7.16 1.753 0 .858 3.059 1.573 7.16 1.754v-.003c.265.014 1.013.044 2.079.044 1.334 0 1.933-.036 2.05-.044v.003"/></g></g><g><path fill="#5b5a5d" d="M56.952 21.683c.23 1.758 1.757 3.027 4.236 3.027 1.296 0 2.997-.491 3.804-1.326l2.247 2.22c-1.499 1.555-3.948 2.306-6.11 2.306-4.901 0-7.812-3.027-7.812-7.58 0-4.322 2.94-7.435 7.55-7.435 4.754 0 7.722 2.94 7.176 8.789zm7.712-2.92c-.23-1.838-1.67-2.758-3.684-2.758-1.898 0-3.454.92-3.972 2.758zm9.721-9.443v4.034h3.92v3.027h-3.947v6.137c0 1.355.751 2.017 1.845 2.017.548 0 1.182-.173 1.7-.432l.98 2.997a7.887 7.887 0 0 1-2.91.604c-3.083.117-5.1-1.644-5.1-5.186V16.38H68.22v-3.027h2.652V9.696zm9.335-1.96v7.895c1.268-1.642 2.822-2.133 4.435-2.133 4.031 0 5.817 2.738 5.817 6.917v7.493H90.46v-7.463c0-2.595-1.354-3.688-3.227-3.688-2.074 0-3.512 1.757-3.512 3.89v7.263h-3.513V7.363zm15.505 14.323c.23 1.758 1.758 3.027 4.237 3.027 1.296 0 2.997-.491 3.804-1.326l2.246 2.22c-1.498 1.555-3.947 2.306-6.11 2.306-4.897 0-7.81-3.027-7.81-7.58 0-4.322 2.94-7.435 7.551-7.435 4.755 0 7.725 2.94 7.177 8.789zm7.723-2.92c-.23-1.838-1.672-2.758-3.689-2.758-1.9 0-3.458.92-3.977 2.758zm8.615-5.436l.26 1.642c1.096-1.758 2.564-2.017 4.006-2.017 1.469 0 2.881.575 3.659 1.352l-1.585 3.054c-.721-.605-1.383-.923-2.536-.923-1.844 0-3.545.98-3.545 3.602v7.492h-3.515V13.322zM47.974 9.482v4.034h3.92v3.027h-3.947v6.137c0 1.355.748 2.017 1.844 2.017.548 0 1.183-.173 1.701-.432l.98 2.997a7.887 7.887 0 0 1-2.91.605c-3.084.116-5.1-1.642-5.1-5.187v-6.137H41.81v-3.027h2.651V9.858z"/></g></g></g></svg>