<svg xmlns="http://www.w3.org/2000/svg" width="108" height="17" viewBox="0 0 108 17"><g><g><g><path fill="#1e75bb" d="M101.998.15l-2.114 6.434H88.591L90.704.15h-6.017L79.21 16.828h6.002l2.113-6.433H98.62l-2.114 6.433h6.018L108 .15z"/></g><g><path fill="#1e75bb" d="M78.147 7.849a2.794 2.794 0 0 0-1.05-.941 3.51 3.51 0 0 0-1.48-.324H62.425l.74-2.315h17.312L81.85.15H62.657c-.587 0-1.158.108-1.698.324a5.272 5.272 0 0 0-1.666.957c-.432.416-.956.848-1.28 1.373-.386.509-.71 1.08-.942 1.681l-.524 1.574a7.867 7.867 0 0 0-.216 1.697c.092.525.216 1.05.432 1.373.262.402.632.726 1.049.957.447.247.957.386 1.481.417h13.192l-.741 2.221H54.418l-1.358 4.12h19.193c.586 0 1.157-.108 1.697-.324a5.543 5.543 0 0 0 1.667-.941c.432-.417.956-.849 1.28-1.374.401-.509.71-1.08.941-1.681l.525-1.574c.17-.555.247-1.126.216-1.697-.108-.556-.216-1.065-.432-1.404z"/></g><g><path fill="#1e75bb" d="M54.523 2.697c-.093-.525-.216-.941-.51-1.28a2.251 2.251 0 0 0-.956-.942 3.292 3.292 0 0 0-1.481-.324H36.502c-.586 0-1.157.108-1.697.324a5.345 5.345 0 0 0-1.682.957c-.432.416-.941.848-1.28 1.373a6.44 6.44 0 0 0-.942 1.682L26.89 16.83h6.017l4.12-12.544h11.386l-1.25 3.688H39.14l-1.265 3.903h8.008l-1.59 4.968h5.925l4.104-12.466c.17-.556.231-1.111.2-1.682z"/></g><g><path fill="#1e75bb" d="M28.263 2.81a3.098 3.098 0 0 0-.417-1.373 1.959 1.959 0 0 0-1.05-.942 3.1 3.1 0 0 0-1.48-.324H6.123l-1.374 4.12h17.388l-2.746 8.424H2.003L.63 16.835h19.286a5.246 5.246 0 0 0 1.681-.325c.54-.308 1.158-.617 1.682-1.049.51-.401.972-.864 1.373-1.373.34-.51.617-1.034.849-1.59l2.546-8.007a2.99 2.99 0 0 0 .216-1.681z"/></g><g><path fill="#1e75bb" d="M11.602 6.59H1.373L0 10.4h10.337z"/></g></g></g></svg>